<?xml version="1.0" encoding="UTF-8"?>
<svg xmlns="http://www.w3.org/2000/svg" viewBox="0 0 168.43 249.06">
  <defs>
    <style>
      .cls-1 {
        fill: #ff6145;
      }

      .cls-1, .cls-2, .cls-3 {
        mix-blend-mode: multiply;
      }

      .cls-1, .cls-2, .cls-3, .cls-4 {
        stroke-width: 0px;
      }

      .cls-5 {
        isolation: isolate;
      }

      .cls-2, .cls-4 {
        fill: #3c223b;
      }

      .cls-3 {
        fill: #f76674;
      }
    </style>
  </defs>
  <g class="cls-5">
    <g id="Layer_2" data-name="Layer 2">
      <g id="Layer_1-2" data-name="Layer 1">
        <path class="cls-3" d="m132.77,106.84c-13.34,4.86-28.9-1.18-38.32-11.81s-13.58-24.96-15.29-39.06c-1.41-11.56-1.1-24.15,5.61-33.68,7.05-10.02,19.65-14.48,31.71-16.57,9.16-1.59,18.99-2.07,27.36,1.99,7.84,3.8,13.46,11.22,16.76,19.29,3.3,8.06,4.52,16.8,5.53,25.45,1.09,9.35,1.92,19.07-1.13,27.97-5.56,16.25-22.95,25.9-39.97,28.2"/>
        <path class="cls-3" d="m155.17,150.9c1.21,6.31-.6,12.75-2.39,18.92-1.37,4.71-2.74,9.42-4.1,14.12-2.66,9.16-4.99,19.11-9.85,27.43-4.05,6.92-10.24,12.9-17.92,15.18-4.22,1.25-8.67,1.36-13.07,1.45-9.81.21-19.62.42-29.42.63-7.51.16-16.13,2.35-21.7-3.94-3.06-3.45-4.77-7.87-6.28-12.22-4.9-14.12-8.41-28.72-10.46-43.52-1.06-7.64-1.71-15.55.48-22.95,5.31-17.94,32.19-27.43,48.44-31.26,9.26-2.18,14.31-5.26,24.21-1.47,15.3,5.85,38.7,19.97,42.08,37.63Z"/>
        <path class="cls-2" d="m116.52,57.56c1.75.75,3.53,1.63,4.69,3.14,1.19,1.55,1.58,3.55,1.93,5.47,1.44,7.92,2.21,18.31-.32,26.06-2.94,8.98-10.93,15.26-18.88,20.36-18.63,11.94-39.43,20.47-61.08,25.06-5.34,1.13-10.88,2.03-16.22.9-12.5-2.64-19.44-17.16-24.1-27.87-1.62-3.72-3.02-7.77-2.37-11.78.64-3.92,3.14-7.25,5.73-10.27,26.09-30.4,72.14-47.56,110.63-31.07Z"/>
        <path class="cls-1" d="m37.82,68.97c-4.35-6.76-6.13-14.85-5.91-24.17.11-4.86.72-9.74,2.3-14.34,2.01-5.86,5.52-11.11,9.53-15.84,2.85-3.37,6.01-6.55,9.8-8.82,14.2-8.49,37.71-8.79,46.69,6.56,3.63,6.2,5.28,13.33,6.88,20.34,1.64,7.19,3.28,14.76,1.18,21.82-1.28,4.31-3.88,8.1-6.51,11.75-6.08,8.41-13.25,16.96-23.22,19.84-8.91,2.57-18.62.07-26.71-4.46-6.22-3.48-10.82-7.73-14.02-12.7Z"/>
        <g>
          <g>
            <path class="cls-4" d="m112.28,249.06l-2-.13c.36-5.39.65-10.26.56-15.25-.09-4.93-.56-9.98-1.01-14.85-.86-9.18-1.74-18.68-.12-27.95l1.97.34c-1.58,9-.7,18.36.14,27.42.46,4.91.93,10,1.02,15,.09,5.07-.2,9.98-.56,15.42Z"/>
            <path class="cls-4" d="m117.99,249.06l-2-.13c.28-4.26.54-8.43.65-12.56.02-.91.04-1.82.04-2.73,0-1.59-.05-3.01-.15-4.34-.1-1.35-.27-2.74-.43-4.07-.09-.79-.19-1.57-.27-2.36-.96-9.04-.44-18.17.06-27.01.09-1.63.18-3.26.27-4.89l2,.1c-.08,1.63-.17,3.26-.27,4.9-.49,8.75-1,17.8-.07,26.68.08.78.18,1.56.27,2.34.16,1.36.33,2.76.44,4.16.1,1.38.16,2.85.15,4.49,0,.93-.02,1.86-.04,2.79-.11,4.16-.37,8.35-.65,12.63Z"/>
            <path class="cls-4" d="m123.69,249.06l-2-.13c.28-4.26.54-8.43.73-12.59.04-.91.08-1.82.1-2.74.03-1.67,0-3.03-.13-4.31-.11-1.2-.31-2.42-.5-3.6-.15-.94-.3-1.87-.42-2.81-.71-5.75-.1-11.57.48-17.19.5-4.83,1.02-9.82.67-14.62l1.99-.15c.36,4.98-.16,10.06-.68,14.98-.58,5.51-1.17,11.21-.49,16.74.11.92.26,1.83.41,2.74.2,1.21.4,2.47.52,3.73.13,1.35.17,2.79.14,4.54-.02.93-.06,1.86-.1,2.79-.19,4.18-.45,8.36-.73,12.63Z"/>
            <path class="cls-4" d="m129.39,249.06l-2-.13.81-12.63c.15-2.32.3-4.71.04-7.02-.13-1.13-.36-2.24-.6-3.4-.2-.97-.4-1.98-.55-2.99-.74-5.24.2-10.53,1.11-15.64.99-5.58,1.93-10.84.89-16.1l1.96-.39c1.11,5.62.09,11.32-.88,16.83-.88,4.96-1.79,10.08-1.1,15.01.13.95.33,1.93.53,2.87.24,1.16.48,2.36.62,3.58.28,2.48.13,4.97-.03,7.37l-.81,12.63Z"/>
            <path class="cls-4" d="m135.39,248.42h-2c0-3.25.36-6.52.71-9.69.11-.97.21-1.95.31-2.92.19-1.9.31-3.5.25-5.09-.02-.61-.07-1.22-.14-1.83-.14-1.2-.39-2.38-.65-3.63-.19-.9-.38-1.79-.52-2.7-.04-.23-.07-.45-.1-.68-.79-5.57,0-11.22.76-16.68.66-4.73,1.34-9.62.95-14.31l1.99-.17c.41,4.91-.29,9.92-.96,14.75-.74,5.33-1.51,10.83-.76,16.12.03.21.06.42.1.64.14.87.33,1.74.51,2.61.26,1.23.53,2.51.68,3.8.08.66.13,1.33.15,2,.05,1.7-.07,3.37-.26,5.35-.1.98-.2,1.96-.31,2.94-.34,3.11-.69,6.33-.7,9.47Z"/>
            <path class="cls-4" d="m139.39,247.91c-.2-3.28.31-6.54.8-9.7.15-.96.3-1.92.43-2.88.2-1.48.4-3.23.34-5.01-.02-.59-.07-1.2-.14-1.81-.16-1.31-.45-2.65-.74-3.95-.17-.77-.33-1.54-.48-2.31l-.12-.67c-1.14-6.73-.35-13.6.41-20.25.41-3.52.82-7.17.94-10.69l2,.06c-.12,3.61-.54,7.29-.95,10.86-.75,6.51-1.52,13.24-.43,19.69l.11.64c.14.75.3,1.5.47,2.25.29,1.34.59,2.73.77,4.13.08.67.14,1.34.16,1.99.06,1.93-.14,3.79-.36,5.35-.13.97-.28,1.95-.44,2.92-.5,3.19-.97,6.21-.78,9.27l-2,.12Z"/>
            <path class="cls-4" d="m145.4,247.39c-.42-3.3.24-6.56.88-9.71.54-2.68,1.06-5.21.97-7.78-.07-2.06-.52-4.07-1-6.19-.18-.82-.37-1.63-.53-2.45-2.04-10.33-.49-20.78,1-30.89l1.98.29c-1.47,9.94-2.99,20.22-1.02,30.21.16.8.34,1.6.52,2.4.48,2.12.97,4.31,1.05,6.56.09,2.8-.47,5.57-1.01,8.24-.64,3.13-1.24,6.08-.86,9.06l-1.98.25Z"/>
            <path class="cls-4" d="m150.16,247.12c-.14-2.88.28-5.75.7-8.52.2-1.36.41-2.77.55-4.15.17-1.69.21-3.21.13-4.62-.1-1.73-.39-3.49-.67-5.19l-.13-.79c-.15-.91-.29-1.81-.4-2.72-.31-2.51-.46-5.22-.44-8.31.05-7.52,1.02-15.01,1.96-22.25l1.98.26c-.93,7.18-1.89,14.61-1.94,22.01-.02,3,.12,5.63.42,8.05.11.88.25,1.77.39,2.65l.13.78c.29,1.76.59,3.57.69,5.41.08,1.52.04,3.13-.14,4.93-.14,1.42-.35,2.86-.56,4.24-.42,2.8-.81,5.45-.68,8.13l-2,.1Z"/>
            <path class="cls-4" d="m156.92,246.9l-2-.06c.06-2.12.29-4.26.5-6.32.21-2.02.43-4.1.49-6.14.05-1.52,0-3.07-.11-4.63-.09-1.19-.24-2.41-.37-3.58-.1-.82-.19-1.63-.27-2.45-.09-.91-.16-1.82-.21-2.73-.16-2.98-.05-5.96.06-8.23.36-7.45,1.18-14.85,1.98-22.01l1.99.22c-.79,7.13-1.61,14.5-1.97,21.88-.11,2.22-.21,5.14-.06,8.03.05.88.12,1.76.2,2.64.08.81.17,1.61.27,2.41.14,1.2.29,2.43.38,3.66.13,1.63.17,3.26.12,4.85-.07,2.11-.29,4.23-.5,6.29-.21,2.03-.43,4.13-.49,6.17Z"/>
            <path class="cls-4" d="m161.68,246.79l-1.99-.22c.44-4.02.89-8.18.74-12.26-.07-1.76-.25-3.55-.42-5.29-.18-1.78-.36-3.62-.43-5.45-.13-3.66.2-7.34.53-10.89l1.99-21.76,1.99.18-1.99,21.76c-.32,3.49-.65,7.1-.52,10.63.06,1.77.25,3.58.42,5.32.18,1.77.36,3.59.43,5.41.16,4.22-.3,8.45-.75,12.55Z"/>
          </g>
          <g>
            <path class="cls-4" d="m45.36,194.21l-.17-1.99c18.33-1.56,36.93-1.9,55.29-.99l-.1,2c-18.28-.9-36.79-.57-55.03.98Z"/>
            <path class="cls-4" d="m45.53,200.8l-.21-1.99c3.58-.39,7.41-.76,11.21-.92,3.61-.15,7.26-.1,10.79-.06h.5c10.97.14,22.13.2,33.16.18v2c-11.04.02-22.21-.04-33.19-.17h-.5c-3.5-.05-7.12-.1-10.68.05-3.75.15-7.54.53-11.08.91Z"/>
            <path class="cls-4" d="m45.71,207.4l-.26-1.98c3.83-.5,7.59-.95,11.33-1.05,3.23-.08,6.48.11,9.62.29l1.77.1c11.05.62,22.26.63,33.31.04l.11,2c-11.13.59-22.41.58-33.53-.04l-1.77-.1c-3.1-.18-6.31-.37-9.45-.29-3.64.09-7.34.54-11.12,1.03Z"/>
            <path class="cls-4" d="m84.81,214.5c-5.51,0-11.02-.27-16.5-.81-.74-.07-1.48-.15-2.22-.23-2.97-.31-6.04-.63-9.06-.61-3.81.03-7.71.62-11.16,1.15l-.3-1.98c3.51-.53,7.49-1.14,11.44-1.17,3.12-.03,6.26.3,9.28.62.73.08,1.47.15,2.2.23,11.11,1.09,22.37,1.06,33.47-.09l.2,1.99c-5.76.6-11.57.89-17.37.89Z"/>
            <path class="cls-4" d="m84.93,221.75c-5.46,0-10.92-.38-16.35-1.14-.82-.11-1.64-.24-2.45-.36-2.91-.44-5.92-.89-8.87-.92-3.7-.05-7.53.63-11.2,1.27l-.34-1.97c3.75-.65,7.68-1.33,11.55-1.3,3.09.02,6.17.49,9.15.94.81.12,1.62.24,2.43.36,11.17,1.57,22.48,1.49,33.63-.22l.3,1.98c-5.92.91-11.89,1.36-17.85,1.36Z"/>
            <path class="cls-4" d="m86.09,227.84c-4.71,0-9.57-.25-14.54-.74l-1.02-.1c-4.23-.42-8.61-.86-12.92-.91-3.87-.05-7.81.44-11.61.9l-.24-1.99c3.87-.47,7.86-.97,11.87-.91,4.4.05,8.82.49,13.1.92l1.02.1c10.78,1.07,20.99.96,30.34-.31l.27,1.98c-5.18.71-10.62,1.06-16.27,1.06Z"/>
            <path class="cls-4" d="m86.61,234c-3.83,0-7.84-.14-12.08-.41-5.28-.34-10.94-.66-16.55-.73-4-.05-8.08.25-12.03.53l-.14-1.99c3.98-.29,8.1-.59,12.2-.54,5.65.08,11.34.4,16.65.74,10.16.65,19,.51,27.05-.41l.23,1.99c-4.79.55-9.87.83-15.32.83Z"/>
            <path class="cls-4" d="m85.66,240.21c-2.59,0-5.3-.04-8.16-.13-6.1-.18-12.65-.36-19.15-.46-4.13-.06-8.32.05-12.38.16l-.09-1,.03-1c4.08-.11,8.29-.22,12.46-.16,6.52.1,13.07.28,19.18.46,9.17.28,16.71.11,23.76-.51l.18,1.99c-4.92.43-10.07.65-15.83.65Z"/>
            <path class="cls-4" d="m76.82,246.58c-6.03,0-12.09-.1-17.99-.2l-12.97-.21.03-2,12.97.21c7.08.12,14.4.24,21.59.18,6.79-.05,13.68-.25,20.49-.61l.11,2c-6.84.36-13.76.56-20.58.61-1.21,0-2.43.01-3.65.01Z"/>
          </g>
        </g>
        <g>
          <g>
            <polygon class="cls-4" points="165 168.79 161.58 174.71 168.43 174.71 165 168.79"/>
            <polygon class="cls-4" points="150.1 168.79 146.68 174.71 153.53 174.71 150.1 168.79"/>
            <polygon class="cls-4" points="135.2 168.79 131.78 174.71 138.63 174.71 135.2 168.79"/>
            <polygon class="cls-4" points="120.3 168.79 116.88 174.71 123.73 174.71 120.3 168.79"/>
            <polygon class="cls-4" points="105.4 168.79 101.98 174.71 108.83 174.71 105.4 168.79"/>
            <polygon class="cls-4" points="90.5 168.79 87.08 174.71 93.93 174.71 90.5 168.79"/>
          </g>
          <g>
            <polygon class="cls-4" points="157.78 155.93 154.36 161.86 161.21 161.86 157.78 155.93"/>
            <polygon class="cls-4" points="142.88 155.93 139.46 161.86 146.31 161.86 142.88 155.93"/>
            <polygon class="cls-4" points="127.98 155.93 124.56 161.86 131.41 161.86 127.98 155.93"/>
            <polygon class="cls-4" points="113.08 155.93 109.66 161.86 116.51 161.86 113.08 155.93"/>
            <polygon class="cls-4" points="98.18 155.93 94.76 161.86 101.61 161.86 98.18 155.93"/>
          </g>
          <g>
            <polygon class="cls-4" points="165 143.08 161.58 149.01 168.43 149.01 165 143.08"/>
            <polygon class="cls-4" points="150.1 143.08 146.68 149.01 153.53 149.01 150.1 143.08"/>
            <polygon class="cls-4" points="135.2 143.08 131.78 149.01 138.63 149.01 135.2 143.08"/>
            <polygon class="cls-4" points="120.3 143.08 116.88 149.01 123.73 149.01 120.3 143.08"/>
            <polygon class="cls-4" points="105.4 143.08 101.98 149.01 108.83 149.01 105.4 143.08"/>
            <polygon class="cls-4" points="90.5 143.08 87.08 149.01 93.93 149.01 90.5 143.08"/>
          </g>
          <g>
            <polygon class="cls-4" points="157.78 130.23 154.36 136.15 161.21 136.15 157.78 130.23"/>
            <polygon class="cls-4" points="142.88 130.23 139.46 136.15 146.31 136.15 142.88 130.23"/>
            <polygon class="cls-4" points="127.98 130.23 124.56 136.15 131.41 136.15 127.98 130.23"/>
            <polygon class="cls-4" points="113.08 130.23 109.66 136.15 116.51 136.15 113.08 130.23"/>
            <polygon class="cls-4" points="98.18 130.23 94.76 136.15 101.61 136.15 98.18 130.23"/>
          </g>
        </g>
      </g>
    </g>
  </g>
</svg>