<?xml version="1.0" encoding="UTF-8"?>
<svg xmlns="http://www.w3.org/2000/svg" viewBox="0 0 167.11 139.06">
  <defs>
    <style>
      .cls-1 {
        fill: #ff6145;
      }

      .cls-1, .cls-2, .cls-3 {
        mix-blend-mode: multiply;
        stroke-width: 0px;
      }

      .cls-4 {
        isolation: isolate;
      }

      .cls-2 {
        fill: #3c223b;
      }

      .cls-3 {
        fill: #f76674;
      }
    </style>
  </defs>
  <g class="cls-4">
    <g id="Layer_2" data-name="Layer 2">
      <g id="Layer_1-2" data-name="Layer 1">
        <g>
          <path class="cls-3" d="m132.77,106.84c-13.34,4.86-28.9-1.18-38.32-11.81s-13.58-24.96-15.29-39.06c-1.41-11.56-1.1-24.15,5.61-33.68,7.05-10.02,19.65-14.48,31.71-16.57,9.16-1.59,18.99-2.07,27.36,1.99,7.84,3.8,13.46,11.22,16.76,19.29,3.3,8.06,4.52,16.8,5.53,25.45,1.09,9.35,1.92,19.07-1.13,27.97-5.56,16.25-22.95,25.9-39.97,28.2"/>
          <path class="cls-2" d="m116.52,57.56c1.75.75,3.53,1.63,4.69,3.14,1.19,1.55,1.58,3.55,1.93,5.47,1.44,7.92,2.21,18.32-.32,26.06-2.94,8.98-10.93,15.26-18.88,20.36-18.63,11.94-39.43,20.47-61.08,25.06-5.34,1.13-10.88,2.03-16.22.9-12.5-2.64-19.44-17.16-24.1-27.87-1.62-3.72-3.02-7.77-2.37-11.78.64-3.92,3.14-7.25,5.73-10.27,26.09-30.4,72.14-47.56,110.63-31.07Z"/>
          <path class="cls-1" d="m37.82,68.97c-4.35-6.76-6.13-14.85-5.91-24.17.11-4.86.72-9.74,2.3-14.34,2.01-5.86,5.52-11.11,9.53-15.84,2.85-3.37,6.01-6.55,9.8-8.82,14.2-8.49,37.71-8.79,46.69,6.56,3.63,6.2,5.28,13.33,6.88,20.34,1.64,7.19,3.28,14.76,1.18,21.82-1.28,4.31-3.88,8.1-6.51,11.75-6.08,8.41-13.25,16.96-23.22,19.84-8.91,2.57-18.62.07-26.71-4.46-6.22-3.48-10.82-7.73-14.02-12.7Z"/>
        </g>
      </g>
    </g>
  </g>
</svg>